<svg id="layer_1" enable-background="new 0 0 32 32" height="512" viewBox="0 0 32 32" width="512" xmlns="http://www.w3.org/2000/svg"><path d="m16 2c-7.7197266 0-14 6.2802734-14 14s6.2802734 14 14 14 14-6.2802734 14-14-6.2802734-14-14-14zm0 26c-6.6171875 0-12-5.3828125-12-12s5.3828125-12 12-12 12 5.3828125 12 12-5.3828125 12-12 12z"/><path d="m20 15h-3v-3c0-.5527344-.4472656-1-1-1s-1 .4472656-1 1v3h-3c-.5527344 0-1 .4472656-1 1s.4472656 1 1 1h3v3c0 .5527344.4472656 1 1 1s1-.4472656 1-1v-3h3c.5527344 0 1-.4472656 1-1s-.4472656-1-1-1z"/></svg>