<svg height="512pt" viewBox="0 0 512 512" width="512pt" xmlns="http://www.w3.org/2000/svg"><path d="m45 300c19.554688 0 36.226562-12.542969 42.421875-30h64.652344c6.597656 45.914062 43.011719 82.328125 88.925781 88.925781v34.972657c-25.847656 6.675781-45 30.195312-45 58.101562 0 33.085938 26.914062 60 60 60s60-26.914062 60-60c0-27.90625-19.152344-51.425781-45-58.101562v-34.972657c26.605469-3.824219 50.019531-17.652343 66.292969-37.542969l55.804687 44.65625c-.714844 3.246094-1.097656 6.578126-1.097656 9.960938 0 24.8125 20.1875 45 45 45s45-20.1875 45-45c0-11.957031-4.597656-23.347656-12.941406-32.078125-8.585938-8.976563-19.96875-13.921875-32.058594-13.921875-10.320312 0-20.121094 3.613281-28.109375 10.253906l-55.996094-44.808594c5.21875-12.457031 8.105469-26.121093 8.105469-40.445312 0-23.515625-7.769531-45.253906-20.878906-62.773438l55.472656-54.734374c11.875 7.894531 26.109375 12.507812 41.40625 12.507812 41.355469 0 75-33.644531 75-75s-33.644531-75-75-75-75 33.644531-75 75c0 15.230469 4.574219 29.40625 12.40625 41.25l-55.484375 54.746094c-13.757813-10.332032-30.125-17.363282-47.921875-19.917969v-63.65625c17.457031-6.195313 30-22.867187 30-42.421875 0-24.8125-20.1875-45-45-45s-45 20.1875-45 45c0 19.554688 12.539062 36.226562 30 42.421875v63.652344c-17.765625 2.554687-34.105469 9.5625-47.851562 19.863281l-50.484376-50.484375c5.289063-8.933594 8.335938-19.34375 8.335938-30.453125 0-33.085938-26.914062-60-60-60s-60 26.914062-60 60 26.914062 60 60 60c11.113281 0 21.519531-3.046875 30.453125-8.332031l50.484375 50.484375c-10.300781 13.742187-17.308594 30.085937-19.863281 47.847656h-64.652344c-6.195313-17.457031-22.867187-30-42.421875-30-24.8125 0-45 20.1875-45 45s20.1875 45 45 45zm392 60c7.988281 0 15 7.476562 15 16 0 8.269531-6.730469 15-15 15s-15-6.730469-15-15c0-8.277344 6.824219-16 15-16zm-151 92c0 16.542969-13.457031 30-30 30s-30-13.457031-30-30 13.457031-30 30-30 30 13.457031 30 30zm-30-122c-41.355469 0-75-33.644531-75-75s33.644531-75 75-75 75 33.644531 75 75-33.644531 75-75 75zm181-300c24.8125 0 45 20.1875 45 45s-20.1875 45-45 45-45-20.1875-45-45 20.1875-45 45-45zm-181 0c8.269531 0 15 6.730469 15 15s-6.730469 15-15 15-15-6.730469-15-15 6.730469-15 15-15zm-195 60c0-16.542969 13.457031-30 30-30s30 13.457031 30 30-13.457031 30-30 30-30-13.457031-30-30zm-16 150c8.269531 0 15 6.730469 15 15s-6.730469 15-15 15-15-6.730469-15-15 6.730469-15 15-15zm0 0"/></svg>