<svg id="Capa_1" enable-background="new 0 0 512 512" height="512" viewBox="0 0 512 512" width="512" xmlns="http://www.w3.org/2000/svg"><g><path d="m445.043 303.547v-95.094c23.075-6.548 40.032-27.793 40.032-52.937 0-30.345-24.688-55.031-55.032-55.031-14.887 0-28.402 5.951-38.319 15.587l-82.369-47.555c1.091-4.317 1.677-8.833 1.677-13.484 0-30.345-24.687-55.033-55.032-55.033s-55.032 24.688-55.032 55.032c0 4.651.586 9.167 1.677 13.484l-82.369 47.555c-9.917-9.636-23.433-15.587-38.32-15.587-30.345 0-55.032 24.687-55.032 55.031 0 25.145 16.957 46.389 40.032 52.937v95.094c-23.075 6.548-40.032 27.793-40.032 52.937 0 30.345 24.687 55.031 55.032 55.031 14.887 0 28.403-5.951 38.319-15.587l82.369 47.555c-1.091 4.317-1.677 8.833-1.677 13.484.001 30.347 24.688 55.034 55.033 55.034s55.032-24.688 55.032-55.032c0-4.651-.586-9.167-1.677-13.484l82.369-47.555c9.917 9.636 23.432 15.587 38.319 15.587 30.345 0 55.032-24.687 55.032-55.031 0-25.145-16.957-46.39-40.032-52.938zm-174.043 100.484v-38.982c-4.931.668-9.939 1.015-15 1.015s-10.069-.347-15-1.015v38.982c-8.889 2.523-16.867 7.223-23.32 13.493l-82.369-47.555c1.091-4.317 1.677-8.833 1.677-13.484s-.586-9.168-1.677-13.485l33.746-19.483c-6.227-7.985-11.265-16.713-15.033-25.961l-33.748 19.484c-6.453-6.27-14.43-10.97-23.319-13.493v-95.094c8.889-2.523 16.867-7.222 23.319-13.493l33.748 19.484c3.768-9.249 8.806-17.976 15.033-25.961l-33.745-19.483c1.092-4.317 1.677-8.833 1.677-13.485 0-4.651-.586-9.167-1.677-13.484l82.369-47.555c6.453 6.27 14.43 10.97 23.32 13.493v38.982c4.931-.668 9.939-1.015 15-1.015s10.069.347 15 1.015v-38.982c8.889-2.523 16.867-7.223 23.32-13.493l82.369 47.555c-1.091 4.317-1.677 8.833-1.677 13.484s.586 9.168 1.677 13.485l-33.746 19.483c6.227 7.985 11.265 16.713 15.033 25.961l33.748-19.484c6.452 6.27 14.43 10.97 23.319 13.493v95.094c-8.889 2.523-16.866 7.222-23.319 13.493l-33.748-19.484c-3.768 9.249-8.806 17.976-15.033 25.961l33.745 19.483c-1.092 4.317-1.677 8.833-1.677 13.485 0 4.651.585 9.167 1.677 13.484l-82.369 47.555c-6.453-6.271-14.431-10.971-23.32-13.493z"/><circle cx="256" cy="256" r="80.064"/></g></svg>