<svg height="512" viewBox="0 0 32 32" width="512" xmlns="http://www.w3.org/2000/svg"><g id="_x30_5"><path d="m14.7070313 5.7070313.2929687-.2929688v8.5859375c0 .5522461.4472656 1 1 1s1-.4477539 1-1v-8.5859375l.2929688.2929688c.1953125.1953125.4511718.2929687.7070312.2929687s.5117188-.0976563.7070313-.2929688c.390625-.390625.390625-1.0234375 0-1.4140625l-2-2c-.390625-.390625-1.0234375-.390625-1.4140625 0l-2 2c-.390625.390625-.390625 1.0234375 0 1.4140625s1.0234375.3906251 1.4140625.0000001z"/><path d="m29.7070313 4.2929688-2-2c-.390625-.390625-1.0234375-.390625-1.4140625 0l-2 2c-.390625.390625-.390625 1.0234375 0 1.4140625s1.0234375.390625 1.4140625 0l.2929687-.2929688v5.5859375c0 .5522461.4472656 1 1 1s1-.4477539 1-1v-5.5859375l.2929688.2929688c.1953125.1953125.4511718.2929687.7070312.2929687s.5117188-.0976563.7070313-.2929688c.390625-.3906249.390625-1.0234374 0-1.4140624z"/><path d="m6 11v-5.5859375l.2929688.2929688c.1953125.1953125.4511718.2929687.7070312.2929687s.5117188-.0976563.7070313-.2929688c.390625-.390625.390625-1.0234375 0-1.4140625l-2-2c-.390625-.390625-1.0234375-.390625-1.4140625 0l-2 2c-.390625.390625-.390625 1.0234375 0 1.4140625s1.0234375.390625 1.4140625 0l.2929687-.2929687v5.5859375c0 .5522461.4472656 1 1 1s1-.4477539 1-1z"/><path d="m26.3603516 13.0668945-7-2.7001953c-.5185547-.1962891-1.0947266.0576172-1.2929688.5732422-.1992188.5151367.0576172 1.0942383.5722656 1.2929688l4.6259766 1.7841797-7.265625 2.9057617-7.265625-2.9057617 4.6259766-1.7841797c.5146484-.1987305.7714844-.777832.5722656-1.2929688-.1982422-.515625-.7763672-.7695313-1.2929688-.5732422l-7 2.7001953c-.3828125.1479493-.6367187.515625-.6396484.9267578 0 .0021973.0009155.0041504.0009155.0063477h-.0009155v11c0 .4086914.2490234.7763672.6289063.9287109l10 4c.1191406.0473633.2451171.0712891.3710937.0712891s.2519531-.0239258.3710938-.0712891l10-4c.3798828-.1523437.6289062-.5200195.6289062-.9287109v-11h-.0009155c0-.0021973.0009155-.0041504.0009155-.0063477-.0029297-.4111328-.2568359-.7788085-.6396484-.9267578zm-19.3603516 2.4102784 8 3.1999512v8.8457031l-8-3.2000732zm10 12.0456542v-8.8457031l8-3.1999512v8.8455811z"/></g></svg>