<svg height="512" viewBox="0 0 32 32" width="512" xmlns="http://www.w3.org/2000/svg"><g id="_x31_5"><path d="m29 13h-1.3867188c-.2792969-1.0917969-.7070313-2.1269531-1.2773438-3.0927734l.9775391-.9785156c.390625-.390625.390625-1.0234375 0-1.4140625l-2.828125-2.828125c-.390625-.390625-1.0234375-.390625-1.4140625 0l-.9785156.9775391c-.9658203-.5703126-2.0009765-.998047-3.0927734-1.2773438v-1.3867188c0-.5527344-.4472656-1-1-1h-4c-.5527344 0-1 .4472656-1 1v1.3867188c-1.0917969.2792968-2.1269531.7070312-3.0927734 1.2773437l-.9785157-.9775391c-.390625-.390625-1.0234375-.390625-1.4140625 0l-2.828125 2.828125c-.390625.390625-.390625 1.0234375 0 1.4140625l.9775391.9785156c-.5703125.9658204-.9980469 2.0009766-1.2773437 3.0927735h-1.3867188c-.5527344 0-1 .4472656-1 1v4c0 .5527344.4472656 1 1 1h1.3867188c.2792969 1.0917969.7070313 2.1269531 1.2773438 3.0927734l-.9775391.9785156c-.390625.390625-.390625 1.0234375 0 1.4140625l2.828125 2.828125c.390625.390625 1.0234375.390625 1.4140625 0l.9785156-.9775391c.9658203.5703126 2.0009765.998047 3.0927734 1.2773439v1.3867187c0 .5527344.4472656 1 1 1h4c.5527344 0 1-.4472656 1-1v-1.3867188c1.0917969-.2792969 2.1269531-.7070313 3.0927734-1.2773438l.9785156.9775391c.390625.390625 1.0234375.390625 1.4140625 0l2.828125-2.828125c.390625-.390625.390625-1.0234375 0-1.4140625l-.9775391-.9785156c.5703126-.9658203.998047-2.0009765 1.2773439-3.0927734h1.3867187c.5527344 0 1-.4472656 1-1v-4c0-.5527344-.4472656-1-1-1zm-1 4h-1.1904297c-.4824219 0-.8964844.3447266-.9833984.8193359-.2568359 1.3935547-.7910156 2.6875-1.5888672 3.8447266-.2734375.3974609-.2246094.9326172.1162109 1.2744141l.8388672.8398438-1.4140625 1.4140625-.8398438-.8388672c-.3408203-.3408203-.8779297-.3916016-1.2744141-.1162109-1.1572266.7978516-2.4511719 1.3320313-3.8447266 1.5888672-.4746092.0869139-.8193358.5009764-.8193358.9833983v1.1904297h-2v-1.1904297c0-.4824219-.3447266-.8964844-.8193359-.9833984-1.3935547-.2568359-2.6875-.7910156-3.8447266-1.5888672-.3964844-.2753906-.9335938-.2246094-1.2744141.1162109l-.8398438.8388672-1.4140625-1.4140625.8388672-.8398438c.3408203-.3417969.3896484-.8769531.1162109-1.2744141-.7978516-1.1572266-1.3320313-2.4511719-1.5888672-3.8447266-.0869139-.4746092-.5009764-.8193358-.9833983-.8193358h-1.1904297v-2h1.1904297c.4824219 0 .8964844-.3447266.9833984-.8193359.2568359-1.3935547.7910156-2.6875 1.5888672-3.8447266.2734375-.3974609.2246094-.9326172-.1162109-1.2744141l-.8388672-.8398437 1.4140625-1.4140625.8398438.8388672c.3408203.3408203.8779297.3916016 1.2744141.1162109 1.1572266-.7978516 2.4511719-1.3320313 3.8447266-1.5888672.4746092-.086914.8193358-.5009765.8193358-.9833984v-1.1904297h2v1.1904297c0 .4824219.3447266.8964844.8193359.9833984 1.3935547.2568359 2.6875.7910156 3.8447266 1.5888672.3964844.2753906.9335938.2246094 1.2744141-.1162109l.8398438-.8388672 1.4140625 1.4140625-.8388672.8398438c-.3408203.3417969-.3896484.8769531-.1162109 1.2744141.7978516 1.1572266 1.3320313 2.4511719 1.5888672 3.8447266.0869139.4746092.5009764.8193358.9833983.8193358h1.1904297z"/><path d="m23.3935547 11.0810547-7-3c-.25-.1074219-.5371094-.1074219-.7871094 0l-7 3c-.368164.1572266-.6064453.5185547-.6064453.9189453v8c0 .4003906.2382813.7617188.6064453.9189453l7 3c.125.053711.2597656.0810547.3935547.0810547s.2685547-.0273438.3935547-.0810547l7-3c.3681641-.1572265.6064453-.5185547.6064453-.9189453v-8c0-.4003906-.2382812-.7617187-.6064453-.9189453zm-7.3935547-.9931641 4.4609375 1.9121094-4.4609375 1.9121094-4.4609375-1.9121094zm-6 3.4282837 5 2.1428833v5.8245239l-5-2.1427612zm7 7.9674072v-5.8245239l5-2.1428833v5.824646z"/></g></svg>