<svg height="512" viewBox="0 0 32 32" width="512" xmlns="http://www.w3.org/2000/svg"><g id="_x30_7"><path d="m30 9c0-3.8598633-3.1401367-7-7-7-2.824707 0-5.2580566 1.6853638-6.3632202 4.1003418l-2.2227173-1.010498c-.2636719-.1201172-.5649414-.1201172-.8276367 0l-11 5c-.3574219.1621093-.5864258.5180664-.5864258.9101562v13c0 .3920898.2290039.7480469.5864258.9101563l11 5c.1313476.0600585.2724609.0898437.4135742.0898437s.2822266-.0297852.4135742-.0898438l11-5c.3574219-.1621093.5864258-.5180664.5864258-.9101562v-8.6849976c2.3607788-1.1262817 4-3.529663 4-6.3150024zm-16-1.9013672 2.0736084.9425049c-.043396.3145142-.0736084.6331177-.0736084.9593506 0 1.62677.5626831 3.1218872 1.4972534 4.3117676l-3.4972534 1.5891113-8.5834961-3.9013672zm-10 5.4540405 9 4.0909424v10.8032227l-9-4.0908814zm20 10.8032837-9 4.0908813v-10.8032226l4.0742188-1.8516846c1.1203613.7617798 2.4717407 1.2080689 3.9257812 1.2080689.3403931 0 .6724854-.0326538 1-.079834zm-1-9.355957c-2.7568359 0-5-2.2431641-5-5s2.2431641-5 5-5 5 2.2431641 5 5-2.2431641 5-5 5z"/><path d="m25.371582 5.0712891c-.5146484-.2041016-1.0947266.0444336-1.300293.5571289l-1.4365234 3.5922852-.9277344-.9277344c-.390625-.390625-1.0234375-.390625-1.4140625 0s-.390625 1.0234375 0 1.4140625l2 2c.1894532.1894531.444336.2929687.7070313.2929687.0668945 0 .1342773-.0068359.2011719-.0205078.3291016-.0673828.6025391-.2958984.7275391-.6079102l2-5c.2050781-.5131836-.0444337-1.0947265-.557129-1.3002929z"/></g></svg>