<svg id="Layer_2" enable-background="new 0 0 32 32" height="512" viewBox="0 0 32 32" width="512" xmlns="http://www.w3.org/2000/svg"><path d="m6 25.87305h14.37305c3.03223 0 5.5-2.46729 5.5-5.5v-14.37305c0-3.03271-2.46777-5.5-5.5-5.5h-14.37305c-3.03271 0-5.5 2.46729-5.5 5.5v14.37305c0 3.03271 2.46729 5.5 5.5 5.5zm-2.5-19.87305c0-1.37842 1.12158-2.5 2.5-2.5h14.37305c1.37891 0 2.5 1.12158 2.5 2.5v14.37305c0 1.37842-1.12109 2.5-2.5 2.5h-14.37305c-1.37842 0-2.5-1.12158-2.5-2.5z"/><path d="m30 11.68652c-.82813 0-1.5.67139-1.5 1.5v10.81348c0 2.48145-2.01855 4.5-4.5 4.5h-10.81348c-.82861 0-1.5.67139-1.5 1.5s.67139 1.5 1.5 1.5h10.81348c4.13574 0 7.5-3.36426 7.5-7.5v-10.81348c0-.82861-.67187-1.5-1.5-1.5z"/><path d="m8.70313 14.68652h2.9834v2.98291c0 .82861.67139 1.5 1.5 1.5s1.5-.67139 1.5-1.5v-2.98291h2.9834c.82813 0 1.5-.67139 1.5-1.5s-.67188-1.5-1.5-1.5h-2.9834v-2.9834c0-.82861-.67139-1.5-1.5-1.5s-1.5.67139-1.5 1.5v2.9834h-2.9834c-.82861 0-1.5.67139-1.5 1.5s.67138 1.5 1.5 1.5z"/></svg>